<?xml version="1.0" encoding="UTF-8"?>
<svg width="1400" height="1750" viewBox="0 0 1400 1750" xmlns="http://www.w3.org/2000/svg">
  <defs>
    <marker id="arrow" viewBox="0 0 10 10" refX="9" refY="5"
            markerWidth="7" markerHeight="7" orient="auto">
      <path d="M 0 0 L 10 5 L 0 10 z" fill="#111"/>
    </marker>
    <style>
      .title { font-family: Arial, sans-serif; font-size: 26px; font-weight: 700; fill: #111; }
      .subtitle { font-family: Arial, sans-serif; font-size: 15px; font-weight: 700; fill: #111; }
      .code { font-family: Arial, sans-serif; font-size: 14px; fill: #111; }
      .small { font-family: Arial, sans-serif; font-size: 12px; fill: #333; }
      .node { fill: #fff; stroke: #111; stroke-width: 2; }
      .edge { fill: none; stroke: #111; stroke-width: 1.6; marker-end: url(#arrow); }
      .thin { fill: none; stroke: #111; stroke-width: 1.3; }
      .note { font-family: Arial, sans-serif; font-size: 13px; fill: #333; }
    </style>
  </defs>

  <rect width="1400" height="1750" fill="#fff"/>
  <text x="700" y="35" text-anchor="middle" class="title">CFG - evaluate_client_package()</text>

  <text x="70" y="75" class="subtitle">Blocuri numerotate</text>
  <text x="70" y="110" class="code">1</text><text x="118" y="110" class="code">Start</text>
  <text x="70" y="138" class="code">2</text><text x="118" y="138" class="code">if date pachet invalide</text>
  <text x="70" y="166" class="code">3</text><text x="118" y="166" class="code">ValueError: invalid package data</text>
  <text x="70" y="194" class="code">4</text><text x="118" y="194" class="code">initializare contoare</text>
  <text x="70" y="222" class="code">5</text><text x="118" y="222" class="code">for: mai exista status?</text>
  <text x="70" y="250" class="code">6</text><text x="118" y="250" class="code">if status invalid</text>
  <text x="70" y="278" class="code">7</text><text x="118" y="278" class="code">ValueError: invalid session status</text>
  <text x="70" y="306" class="code">8</text><text x="118" y="306" class="code">if status == "attended"</text>
  <text x="70" y="334" class="code">9</text><text x="118" y="334" class="code">attended += 1</text>
  <text x="70" y="362" class="code">10</text><text x="118" y="362" class="code">if status == "no_show"</text>
  <text x="70" y="390" class="code">11</text><text x="118" y="390" class="code">no_show += 1</text>
  <text x="70" y="418" class="code">12</text><text x="118" y="418" class="code">if status == "cancelled"</text>
  <text x="70" y="446" class="code">13</text><text x="118" y="446" class="code">cancelled += 1</text>
  <text x="70" y="474" class="code">14</text><text x="118" y="474" class="code">urmatorul status</text>
  <text x="70" y="502" class="code">15</text><text x="118" y="502" class="code">used_sessions = attended + no_show</text>
  <text x="70" y="530" class="code">16</text><text x="118" y="530" class="code">if used_sessions &gt; package_sessions</text>
  <text x="70" y="558" class="code">17</text><text x="118" y="558" class="code">ValueError: used sessions exceed package</text>
  <text x="70" y="586" class="code">18</text><text x="118" y="586" class="code">remaining_sessions si total_cost</text>
  <text x="70" y="614" class="code">19</text><text x="118" y="614" class="code">if has_membership</text>
  <text x="70" y="642" class="code">20</text><text x="118" y="642" class="code">aplica discount</text>
  <text x="70" y="670" class="code">21</text><text x="118" y="670" class="code">if remaining == 0 and no_show == 0</text>
  <text x="70" y="698" class="code">22</text><text x="118" y="698" class="code">status = completed_successfully</text>
  <text x="70" y="726" class="code">23</text><text x="118" y="726" class="code">if remaining == 0</text>
  <text x="70" y="754" class="code">24</text><text x="118" y="754" class="code">status = completed_with_absences</text>
  <text x="70" y="782" class="code">25</text><text x="118" y="782" class="code">status = active</text>
  <text x="70" y="810" class="code">26</text><text x="118" y="810" class="code">return dictionar</text>
  <text x="70" y="838" class="code">27</text><text x="118" y="838" class="code">Stop</text>

  <text x="70" y="900" class="note">Nota: nodurile 3, 7 si 17 sunt iesiri prin exceptie.</text>
  <text x="70" y="920" class="note">Pentru circuite independente se poate adauga arc fictiv final -> 1.</text>

  <!-- Nodes -->
  <circle cx="760" cy="80" r="28" class="node"/><text x="760" y="85" text-anchor="middle" class="code">1</text>
  <circle cx="760" cy="155" r="28" class="node"/><text x="760" y="160" text-anchor="middle" class="code">2</text>
  <circle cx="1000" cy="155" r="28" class="node"/><text x="1000" y="160" text-anchor="middle" class="code">3</text>
  <circle cx="760" cy="235" r="28" class="node"/><text x="760" y="240" text-anchor="middle" class="code">4</text>
  <circle cx="760" cy="315" r="28" class="node"/><text x="760" y="320" text-anchor="middle" class="code">5</text>
  <circle cx="760" cy="395" r="28" class="node"/><text x="760" y="400" text-anchor="middle" class="code">6</text>
  <circle cx="1000" cy="395" r="28" class="node"/><text x="1000" y="400" text-anchor="middle" class="code">7</text>
  <circle cx="760" cy="475" r="28" class="node"/><text x="760" y="480" text-anchor="middle" class="code">8</text>
  <circle cx="600" cy="555" r="28" class="node"/><text x="600" y="560" text-anchor="middle" class="code">9</text>
  <circle cx="760" cy="555" r="28" class="node"/><text x="760" y="560" text-anchor="middle" class="code">10</text>
  <circle cx="920" cy="635" r="28" class="node"/><text x="920" y="640" text-anchor="middle" class="code">11</text>
  <circle cx="760" cy="715" r="28" class="node"/><text x="760" y="720" text-anchor="middle" class="code">12</text>
  <circle cx="600" cy="795" r="28" class="node"/><text x="600" y="800" text-anchor="middle" class="code">13</text>
  <circle cx="760" cy="875" r="28" class="node"/><text x="760" y="880" text-anchor="middle" class="code">14</text>
  <circle cx="760" cy="990" r="28" class="node"/><text x="760" y="995" text-anchor="middle" class="code">15</text>
  <circle cx="760" cy="1070" r="28" class="node"/><text x="760" y="1075" text-anchor="middle" class="code">16</text>
  <circle cx="1000" cy="1070" r="28" class="node"/><text x="1000" y="1075" text-anchor="middle" class="code">17</text>
  <circle cx="760" cy="1150" r="28" class="node"/><text x="760" y="1155" text-anchor="middle" class="code">18</text>
  <circle cx="760" cy="1230" r="28" class="node"/><text x="760" y="1235" text-anchor="middle" class="code">19</text>
  <circle cx="600" cy="1310" r="28" class="node"/><text x="600" y="1315" text-anchor="middle" class="code">20</text>
  <circle cx="760" cy="1390" r="28" class="node"/><text x="760" y="1395" text-anchor="middle" class="code">21</text>
  <circle cx="1000" cy="1390" r="28" class="node"/><text x="1000" y="1395" text-anchor="middle" class="code">22</text>
  <circle cx="760" cy="1470" r="28" class="node"/><text x="760" y="1475" text-anchor="middle" class="code">23</text>
  <circle cx="1000" cy="1470" r="28" class="node"/><text x="1000" y="1475" text-anchor="middle" class="code">24</text>
  <circle cx="600" cy="1470" r="28" class="node"/><text x="600" y="1475" text-anchor="middle" class="code">25</text>
  <circle cx="760" cy="1580" r="28" class="node"/><text x="760" y="1585" text-anchor="middle" class="code">26</text>
  <circle cx="760" cy="1660" r="28" class="node"/><text x="760" y="1665" text-anchor="middle" class="code">27</text>

  <!-- Main flow -->
  <path d="M760 108 L760 127" class="edge"/>
  <path d="M760 183 L760 207" class="edge"/>
  <path d="M760 263 L760 287" class="edge"/>
  <path d="M760 343 L760 367" class="edge"/>
  <path d="M760 423 L760 447" class="edge"/>
  <path d="M760 503 L760 527" class="edge"/>
  <path d="M760 583 L760 687" class="edge"/>
  <path d="M760 743 L760 847" class="edge"/>
  <path d="M760 903 L760 962" class="edge"/>
  <path d="M760 1018 L760 1042" class="edge"/>
  <path d="M760 1098 L760 1122" class="edge"/>
  <path d="M760 1178 L760 1202" class="edge"/>
  <path d="M760 1258 L760 1362" class="edge"/>
  <path d="M760 1418 L760 1442" class="edge"/>
  <path d="M760 1498 L760 1552" class="edge"/>
  <path d="M760 1608 L760 1632" class="edge"/>

  <!-- Branches -->
  <path d="M788 155 L972 155" class="edge"/>
  <path d="M788 395 L972 395" class="edge"/>
  <path d="M732 475 L626 540" class="edge"/>
  <path d="M788 555 L896 623" class="edge"/>
  <path d="M732 715 L626 780" class="edge"/>
  <path d="M788 1070 L972 1070" class="edge"/>
  <path d="M732 1230 L626 1295" class="edge"/>
  <path d="M788 1390 L972 1390" class="edge"/>
  <path d="M788 1470 L972 1470" class="edge"/>
  <path d="M732 1470 L628 1470" class="edge"/>

  <!-- Joins inside loop -->
  <path d="M600 583 L600 875 L732 875" class="edge"/>
  <path d="M920 663 L920 715 L788 715" class="edge"/>
  <path d="M600 823 L600 875 L732 875" class="edge"/>
  <path d="M788 715 L920 715 L920 875 L788 875" class="thin"/>

  <!-- Loop back and loop exit -->
  <path d="M788 875 C1180 875 1180 315 788 315" class="edge"/>
  <path d="M732 315 C460 315 460 990 732 990" class="edge"/>

  <!-- Final joins -->
  <path d="M600 1338 L600 1390 L732 1390" class="edge"/>
  <path d="M1000 1418 L1000 1580 L788 1580" class="edge"/>
  <path d="M1000 1498 L1000 1580 L788 1580" class="edge"/>
  <path d="M600 1498 L600 1580 L732 1580" class="edge"/>
</svg>
